#N canvas 0 63 1280 755 10;
#X obj 235 326 route 0 1 2;
#X obj 203 264 random 3;
#X obj 392 20 vradio 15 1 0 2 empty empty Section: 0 -8 0 10 -262144
-1 -1 0;
#X obj 151 593 route 0 1;
#X obj 151 566 f;
#X obj 595 736 route 0 1 2;
#X obj 563 684 random 3;
#X obj 404 1016 f;
#X obj 404 1046 route 1 0;
#X obj 317 219 f;
#X obj 312 249 route 0 1;
#X text 414 21 C;
#X text 414 35 E;
#X obj 94 733 random 2;
#X obj 94 755 route 0 1;
#X obj 435 1102 random 2;
#X obj 435 1124 route 0 1;
#N canvas 599 64 681 644 AccompanimentC1 0;
#X obj -175 215 pack;
#X obj -175 242 line~;
#X obj -154 192 / 44.1;
#X obj -175 170 f;
#X msg -153 21 0;
#X obj -188 -36 inlet;
#N canvas 0 50 450 250 (subpatch) 0;
#X array accompanimentC1 100 float 3;
#A 0 0 0 0 0 0 0 0 0 0 0 0 0 0 0 0 0 0 0 0 0 0 0 0 0 0 0 0 0 0 0 0
0 0 0 0 0 0 0 0 0 0 0 0 0 0 0 0 0 0 0 0 0 0 0 0 0 0 0 0 0 0 0 0 0 0
0 0 0 0 0 0 0 0 0 0 0 0 0 0 0 0 0 0 0 0 0 0 0 0 0 0 0 0 0 0 0 0 0 0
0;
#X coords 0 1 100 -1 200 140 1 0 0;
#X restore 149 63 graph;
#X obj -174 268 tabread4~ accompanimentC1;
#X msg -73 132 resize \$1;
#X obj -73 153 s accompanimentC1;
#X obj -133 63 r sampleAccompanimentC1 @hv_param 0 441000 0;
#X obj -133 102 t f f f f;
#X obj -243 301 outlet;
#X obj -188 -5 t b b b;
#X obj -185 84 / 44.1;
#X obj -226 73 del;
#X obj -229 31 r stop;
#X msg -229 53 stop;
#X obj -185 351 throw~ left;
#X obj -101 348 throw~ right;
#X obj -43 319 *~;
#X obj -176 319 *~;
#X obj 11 288 r volAccompanimentC1 @hv_param 0 2 1;
#X connect 0 0 1 0;
#X connect 1 0 7 0;
#X connect 2 0 0 1;
#X connect 3 0 0 0;
#X connect 4 0 1 0;
#X connect 5 0 13 0;
#X connect 7 0 21 0;
#X connect 7 0 20 0;
#X connect 8 0 9 0;
#X connect 10 0 11 0;
#X connect 11 0 14 0;
#X connect 11 1 2 0;
#X connect 11 2 3 1;
#X connect 11 3 8 0;
#X connect 13 0 15 0;
#X connect 13 1 3 0;
#X connect 13 2 4 0;
#X connect 14 0 15 1;
#X connect 15 0 12 0;
#X connect 16 0 17 0;
#X connect 17 0 15 0;
#X connect 20 0 19 0;
#X connect 21 0 18 0;
#X connect 22 0 20 1;
#X connect 22 0 21 1;
#X restore 138 479 pd AccompanimentC1;
#N canvas 599 64 681 644 AccompanimentC3 0;
#X obj -175 215 pack;
#X obj -175 242 line~;
#X obj -154 192 / 44.1;
#X obj -175 170 f;
#X msg -153 21 0;
#X obj -188 -36 inlet;
#N canvas 0 50 450 250 (subpatch) 0;
#X array accompanimentC3 100 float 3;
#A 0 0 0 0 0 0 0 0 0 0 0 0 0 0 0 0 0 0 0 0 0 0 0 0 0 0 0 0 0 0 0 0
0 0 0 0 0 0 0 0 0 0 0 0 0 0 0 0 0 0 0 0 0 0 0 0 0 0 0 0 0 0 0 0 0 0
0 0 0 0 0 0 0 0 0 0 0 0 0 0 0 0 0 0 0 0 0 0 0 0 0 0 0 0 0 0 0 0 0 0
0;
#X coords 0 1 100 -1 200 140 1 0 0;
#X restore 149 63 graph;
#X msg -73 132 resize \$1;
#X obj -133 102 t f f f f;
#X obj -243 301 outlet;
#X obj -188 -5 t b b b;
#X obj -133 63 r sampleAccompanimentC3 @hv_param 0 441000 0;
#X obj -73 153 s accompanimentC3;
#X obj -175 275 tabread4~ accompanimentC3;
#X obj -184 105 / 44.1;
#X obj -226 92 del;
#X obj -229 31 r stop;
#X msg -229 53 stop;
#X obj -185 351 throw~ left;
#X obj -101 348 throw~ right;
#X obj -43 319 *~;
#X obj -176 319 *~;
#X obj 11 288 r volAccompanimentC3 @hv_param 0 2 1;
#X connect 0 0 1 0;
#X connect 1 0 13 0;
#X connect 2 0 0 1;
#X connect 3 0 0 0;
#X connect 4 0 1 0;
#X connect 5 0 10 0;
#X connect 7 0 12 0;
#X connect 8 0 14 0;
#X connect 8 1 2 0;
#X connect 8 2 3 1;
#X connect 8 3 7 0;
#X connect 10 0 15 0;
#X connect 10 1 3 0;
#X connect 10 2 4 0;
#X connect 11 0 8 0;
#X connect 13 0 21 0;
#X connect 13 0 20 0;
#X connect 14 0 15 1;
#X connect 15 0 9 0;
#X connect 16 0 17 0;
#X connect 17 0 15 0;
#X connect 20 0 19 0;
#X connect 21 0 18 0;
#X connect 22 0 20 1;
#X connect 22 0 21 1;
#X restore 188 439 pd AccompanimentC3;
#N canvas 599 64 681 644 AccompanimentC2 0;
#X obj -175 215 pack;
#X obj -175 242 line~;
#X obj -154 192 / 44.1;
#X obj -175 170 f;
#X msg -153 21 0;
#X obj -188 -36 inlet;
#N canvas 0 50 450 250 (subpatch) 0;
#X array accompanimentC2 100 float 3;
#A 0 0 0 0 0 0 0 0 0 0 0 0 0 0 0 0 0 0 0 0 0 0 0 0 0 0 0 0 0 0 0 0
0 0 0 0 0 0 0 0 0 0 0 0 0 0 0 0 0 0 0 0 0 0 0 0 0 0 0 0 0 0 0 0 0 0
0 0 0 0 0 0 0 0 0 0 0 0 0 0 0 0 0 0 0 0 0 0 0 0 0 0 0 0 0 0 0 0 0 0
0 ;
#X coords 0 1 100 -1 200 140 1 0 0;
#X restore 149 63 graph;
#X msg -73 132 resize \$1;
#X obj -133 102 t f f f f;
#X obj -243 301 outlet;
#X obj -188 -5 t b b b;
#X obj -73 153 s accompanimentC2;
#X obj -175 275 tabread4~ accompanimentC2;
#X obj -133 63 r sampleAccompanimentC2 @hv_param 0 441000 0;
#X obj -182 86 / 44.1;
#X obj -226 73 del;
#X obj -229 31 r stop;
#X msg -229 53 stop;
#X obj -185 351 throw~ left;
#X obj -101 348 throw~ right;
#X obj -43 319 *~;
#X obj -176 319 *~;
#X obj 11 288 r volAccompanimentC2 @hv_param 0 2 1;
#X connect 0 0 1 0;
#X connect 1 0 12 0;
#X connect 2 0 0 1;
#X connect 3 0 0 0;
#X connect 4 0 1 0;
#X connect 5 0 10 0;
#X connect 7 0 11 0;
#X connect 8 0 14 0;
#X connect 8 1 2 0;
#X connect 8 2 3 1;
#X connect 8 3 7 0;
#X connect 10 0 15 0;
#X connect 10 1 3 0;
#X connect 10 2 4 0;
#X connect 12 0 21 0;
#X connect 12 0 20 0;
#X connect 13 0 8 0;
#X connect 14 0 15 1;
#X connect 15 0 9 0;
#X connect 16 0 17 0;
#X connect 17 0 15 0;
#X connect 20 0 19 0;
#X connect 21 0 18 0;
#X connect 22 0 20 1;
#X connect 22 0 21 1;
#X restore 158 459 pd AccompanimentC2;
#X obj 567 478 catch~ left;
#X obj 661 479 catch~ right;
#X obj 627 519 dac~;
#N canvas 599 64 681 644 AccompanimentE3 0;
#X obj -175 215 pack;
#X obj -175 242 line~;
#X obj -154 192 / 44.1;
#X obj -175 170 f;
#X msg -153 21 0;
#X obj -188 -36 inlet;
#N canvas 0 50 450 250 (subpatch) 0;
#X array accompanimentE3 100 float 3;
#A 0 0 0 0 0 0 0 0 0 0 0 0 0 0 0 0 0 0 0 0 0 0 0 0 0 0 0 0 0 0 0 0
0 0 0 0 0 0 0 0 0 0 0 0 0 0 0 0 0 0 0 0 0 0 0 0 0 0 0 0 0 0 0 0 0 0
0 0 0 0 0 0 0 0 0 0 0 0 0 0 0 0 0 0 0 0 0 0 0 0 0 0 0 0 0 0 0 0 0 0
0;
#X coords 0 1 100 -1 200 140 1 0 0;
#X restore 149 63 graph;
#X msg -73 132 resize \$1;
#X obj -133 102 t f f f f;
#X obj -243 301 outlet;
#X obj -188 -5 t b b b;
#X obj -133 63 r sampleAccompanimentE3 @hv_param 0 441000 0;
#X obj -73 153 s accompanimentE3;
#X obj -175 275 tabread4~ accompanimentE3;
#X obj -226 73 del;
#X obj -185 84 / 44.1;
#X obj -231 21 r stop;
#X msg -231 43 stop;
#X obj -185 351 throw~ left;
#X obj -101 348 throw~ right;
#X obj -43 319 *~;
#X obj -176 319 *~;
#X obj 11 288 r volAccompanimentE3 @hv_param 0 2 1;
#X connect 0 0 1 0;
#X connect 1 0 13 0;
#X connect 2 0 0 1;
#X connect 3 0 0 0;
#X connect 4 0 1 0;
#X connect 5 0 10 0;
#X connect 7 0 12 0;
#X connect 8 0 15 0;
#X connect 8 1 2 0;
#X connect 8 2 3 1;
#X connect 8 3 7 0;
#X connect 10 0 14 0;
#X connect 10 1 3 0;
#X connect 10 2 4 0;
#X connect 11 0 8 0;
#X connect 13 0 21 0;
#X connect 13 0 20 0;
#X connect 14 0 9 0;
#X connect 15 0 14 1;
#X connect 16 0 17 0;
#X connect 17 0 14 0;
#X connect 20 0 19 0;
#X connect 21 0 18 0;
#X connect 22 0 20 1;
#X connect 22 0 21 1;
#X restore 650 803 pd AccompanimentE3;
#N canvas 599 64 681 628 AccompanimentE2 0;
#X obj -175 215 pack;
#X obj -175 242 line~;
#X obj -154 192 / 44.1;
#X obj -175 170 f;
#X msg -153 21 0;
#X obj -188 -36 inlet;
#N canvas 0 50 450 250 (subpatch) 0;
#X array accompanimentE2 100 float 3;
#A 0 0 0 0 0 0 0 0 0 0 0 0 0 0 0 0 0 0 0 0 0 0 0 0 0 0 0 0 0 0 0 0
0 0 0 0 0 0 0 0 0 0 0 0 0 0 0 0 0 0 0 0 0 0 0 0 0 0 0 0 0 0 0 0 0 0
0 0 0 0 0 0 0 0 0 0 0 0 0 0 0 0 0 0 0 0 0 0 0 0 0 0 0 0 0 0 0 0 0 0
0;
#X coords 0 1 100 -1 200 140 1 0 0;
#X restore 149 63 graph;
#X msg -73 132 resize \$1;
#X obj -133 102 t f f f f;
#X obj -243 301 outlet;
#X obj -188 -5 t b b b;
#X obj -133 63 r sampleAccompanimentE2 @hv_param 0 441000 0;
#X obj -73 153 s accompanimentE2;
#X obj -176 268 tabread4~ accompanimentE2;
#X obj -226 73 del;
#X obj -185 84 / 44.1;
#X obj -231 21 r stop;
#X msg -231 43 stop;
#X obj -185 351 throw~ left;
#X obj -101 348 throw~ right;
#X obj -43 319 *~;
#X obj -176 319 *~;
#X obj 11 288 r volAccompanimentE2 @hv_param 0 2 1;
#X connect 0 0 1 0;
#X connect 1 0 13 0;
#X connect 2 0 0 1;
#X connect 3 0 0 0;
#X connect 4 0 1 0;
#X connect 5 0 10 0;
#X connect 7 0 12 0;
#X connect 8 0 15 0;
#X connect 8 1 2 0;
#X connect 8 2 3 1;
#X connect 8 3 7 0;
#X connect 10 0 14 0;
#X connect 10 1 3 0;
#X connect 10 2 4 0;
#X connect 11 0 8 0;
#X connect 13 0 21 0;
#X connect 13 0 20 0;
#X connect 14 0 9 0;
#X connect 15 0 14 1;
#X connect 16 0 17 0;
#X connect 17 0 14 0;
#X connect 20 0 19 0;
#X connect 21 0 18 0;
#X connect 22 0 20 1;
#X connect 22 0 21 1;
#X restore 620 823 pd AccompanimentE2;
#N canvas 599 64 681 644 AccompanimentE1 0;
#X obj -175 215 pack;
#X obj -175 242 line~;
#X obj -154 192 / 44.1;
#X obj -175 170 f;
#X msg -153 21 0;
#X obj -188 -36 inlet;
#N canvas 0 50 450 250 (subpatch) 0;
#X array accompanimentE1 100 float 3;
#A 0 0 0 0 0 0 0 0 0 0 0 0 0 0 0 0 0 0 0 0 0 0 0 0 0 0 0 0 0 0 0 0
0 0 0 0 0 0 0 0 0 0 0 0 0 0 0 0 0 0 0 0 0 0 0 0 0 0 0 0 0 0 0 0 0 0
0 0 0 0 0 0 0 0 0 0 0 0 0 0 0 0 0 0 0 0 0 0 0 0 0 0 0 0 0 0 0 0 0 0
0;
#X coords 0 1 100 -1 200 140 1 0 0;
#X restore 149 63 graph;
#X msg -73 132 resize \$1;
#X obj -133 102 t f f f f;
#X obj -243 301 outlet;
#X obj -188 -5 t b b b;
#X obj -73 153 s accompanimentE1;
#X obj -175 275 tabread4~ accompanimentE1;
#X obj -133 63 r sampleAccompanimentE1 @hv_param 0 441000 0;
#X obj -226 73 del;
#X obj -185 84 / 44.1;
#X obj -231 21 r stop;
#X msg -231 43 stop;
#X obj -185 351 throw~ left;
#X obj -101 348 throw~ right;
#X obj -43 319 *~;
#X obj -176 319 *~;
#X obj 11 288 r volAccompanimentE1 @hv_param 0 2 1;
#X connect 0 0 1 0;
#X connect 1 0 12 0;
#X connect 2 0 0 1;
#X connect 3 0 0 0;
#X connect 4 0 1 0;
#X connect 5 0 10 0;
#X connect 7 0 11 0;
#X connect 8 0 15 0;
#X connect 8 1 2 0;
#X connect 8 2 3 1;
#X connect 8 3 7 0;
#X connect 10 0 14 0;
#X connect 10 1 3 0;
#X connect 10 2 4 0;
#X connect 12 0 21 0;
#X connect 12 0 20 0;
#X connect 13 0 8 0;
#X connect 14 0 9 0;
#X connect 15 0 14 1;
#X connect 16 0 17 0;
#X connect 17 0 14 0;
#X connect 20 0 19 0;
#X connect 21 0 18 0;
#X connect 22 0 20 1;
#X connect 22 0 21 1;
#X restore 600 843 pd AccompanimentE1;
#N canvas 599 64 681 644 BridgeCE 0;
#X obj -175 215 pack;
#X obj -175 242 line~;
#X obj -154 192 / 44.1;
#X obj -175 170 f;
#X msg -153 21 0;
#X obj -188 -36 inlet;
#N canvas 0 50 450 250 (subpatch) 0;
#X array bridgeCE 100 float 3;
#A 0 0 0 0 0 0 0 0 0 0 0 0 0 0 0 0 0 0 0 0 0 0 0 0 0 0 0 0 0 0 0 0
0 0 0 0 0 0 0 0 0 0 0 0 0 0 0 0.171429 0 0 0 0 0 0 0 0 0 0 0 0 0 0
0 0 0 0 0 0 0 0 0 0 0 0 0 0 0 0 0 0 0 0 0 0 0 0 0 0 0 0 0 0 0 0 0 0
0 0 0 0 0;
#X coords 0 1 100 -1 200 140 1 0 0;
#X restore 149 63 graph;
#X msg -73 132 resize \$1;
#X obj -133 102 t f f f f;
#X obj -243 301 outlet;
#X obj -188 -5 t b b b;
#X obj -133 63 r sampleBridgeCE @hv_param 0 441000 0;
#X obj -73 153 s bridgeCE;
#X obj -175 275 tabread4~ bridgeCE;
#X obj -226 73 del;
#X obj -185 84 / 44.1;
#X obj -231 21 r stop;
#X msg -231 43 stop;
#X obj -185 351 throw~ left;
#X obj -101 348 throw~ right;
#X obj -43 319 *~;
#X obj -176 319 *~;
#X obj 11 288 r volBridgeCE @hv_param 0 2 1;
#X connect 0 0 1 0;
#X connect 1 0 13 0;
#X connect 2 0 0 1;
#X connect 3 0 0 0;
#X connect 4 0 1 0;
#X connect 5 0 10 0;
#X connect 7 0 12 0;
#X connect 8 0 15 0;
#X connect 8 1 2 0;
#X connect 8 2 3 1;
#X connect 8 3 7 0;
#X connect 10 0 14 0;
#X connect 10 1 3 0;
#X connect 10 2 4 0;
#X connect 11 0 8 0;
#X connect 13 0 21 0;
#X connect 13 0 20 0;
#X connect 14 0 9 0;
#X connect 15 0 14 1;
#X connect 16 0 17 0;
#X connect 17 0 14 0;
#X connect 20 0 19 0;
#X connect 21 0 18 0;
#X connect 22 0 20 1;
#X connect 22 0 21 1;
#X restore 84 796 pd BridgeCE;
#N canvas 599 64 681 644 BridgeCES 0;
#X obj -175 215 pack;
#X obj -175 242 line~;
#X obj -154 192 / 44.1;
#X obj -175 170 f;
#X msg -153 21 0;
#X obj -188 -36 inlet;
#N canvas 0 50 450 250 (subpatch) 0;
#X array bridgeCES 100 float 3;
#A 0 0 0 0 0 0 0 0 0 0 0 0 0 0 0 0 0 0 0 0 0 0 0 0 0 0 0 0 0 0 0 0
0 0 0 0 0 0 0 0 0 0 0 0 0 0 0 0.171429 0 0 0 0 0 0 0 0 0 0 0 0 0 0
0 0 0 0 0 0 0 0 0 0 0 0 0 0 0 0 0 0 0 0 0 0 0 0 0 0 0 0 0 0 0 0 0 0
0 0 0 0 0;
#X coords 0 1 100 -1 200 140 1 0 0;
#X restore 149 63 graph;
#X msg -73 132 resize \$1;
#X obj -133 102 t f f f f;
#X obj -243 301 outlet;
#X obj -188 -5 t b b b;
#X obj -133 63 r sampleBridgeCES @hv_param 0 441000 0;
#X obj -73 153 s bridgeCES;
#X obj -175 275 tabread4~ bridgeCES;
#X obj -226 73 del;
#X obj -185 84 / 44.1;
#X obj -231 21 r stop;
#X msg -231 43 stop;
#X obj -185 351 throw~ left;
#X obj -101 348 throw~ right;
#X obj -43 319 *~;
#X obj -176 319 *~;
#X obj 11 288 r volBridgeCES @hv_param 0 2 1;
#X connect 0 0 1 0;
#X connect 1 0 13 0;
#X connect 2 0 0 1;
#X connect 3 0 0 0;
#X connect 4 0 1 0;
#X connect 5 0 10 0;
#X connect 7 0 12 0;
#X connect 8 0 15 0;
#X connect 8 1 2 0;
#X connect 8 2 3 1;
#X connect 8 3 7 0;
#X connect 10 0 14 0;
#X connect 10 1 3 0;
#X connect 10 2 4 0;
#X connect 11 0 8 0;
#X connect 13 0 21 0;
#X connect 13 0 20 0;
#X connect 14 0 9 0;
#X connect 15 0 14 1;
#X connect 16 0 17 0;
#X connect 17 0 14 0;
#X connect 20 0 19 0;
#X connect 21 0 18 0;
#X connect 22 0 20 1;
#X connect 22 0 21 1;
#X restore 84 826 pd BridgeCES;
#N canvas 599 64 681 644 BridgeEC 0;
#X obj -175 215 pack;
#X obj -175 242 line~;
#X obj -154 192 / 44.1;
#X obj -175 170 f;
#X msg -153 21 0;
#X obj -188 -36 inlet;
#N canvas 0 50 450 250 (subpatch) 0;
#X array bridgeEC 100 float 3;
#A 0 0 0 0 0 0 0 0 0 0 0 0 0 0 0 0 0 0 0 0 0 0 0 0 0 0 0 0 0 0 0 0
0 0 0 0 0 0 0 0 0 0 0 0 0 0 0 0.171429 0 0 0 0 0 0 0 0 0 0 0 0 0 0
0 0 0 0 0 0 0 0 0 0 0 0 0 0 0 0 0 0 0 0 0 0 0 0 0 0 0 0 0 0 0 0 0 0
0 0 0 0 0;
#X coords 0 1 100 -1 200 140 1 0 0;
#X restore 149 63 graph;
#X msg -73 132 resize \$1;
#X obj -133 102 t f f f f;
#X obj -243 301 outlet;
#X obj -188 -5 t b b b;
#X obj -133 64 r sampleBridgeEC @hv_param 0 441000 0;
#X obj -73 153 s bridgeEC;
#X obj -175 275 tabread4~ bridgeEC;
#X obj -226 73 del;
#X obj -185 84 / 44.1;
#X obj -231 21 r stop;
#X msg -231 43 stop;
#X obj -185 351 throw~ left;
#X obj -101 348 throw~ right;
#X obj -43 319 *~;
#X obj -176 319 *~;
#X obj 11 288 r volBridgeEC @hv_param 0 2 1;
#X connect 0 0 1 0;
#X connect 1 0 13 0;
#X connect 2 0 0 1;
#X connect 3 0 0 0;
#X connect 4 0 1 0;
#X connect 5 0 10 0;
#X connect 7 0 12 0;
#X connect 8 0 15 0;
#X connect 8 1 2 0;
#X connect 8 2 3 1;
#X connect 8 3 7 0;
#X connect 10 0 14 0;
#X connect 10 1 3 0;
#X connect 10 2 4 0;
#X connect 11 0 8 0;
#X connect 13 0 21 0;
#X connect 13 0 20 0;
#X connect 14 0 9 0;
#X connect 15 0 14 1;
#X connect 16 0 17 0;
#X connect 17 0 14 0;
#X connect 20 0 19 0;
#X connect 21 0 18 0;
#X connect 22 0 20 1;
#X connect 22 0 21 1;
#X restore 438 1168 pd BridgeEC;
#N canvas 599 64 681 644 BridgeECS 0;
#X obj -175 215 pack;
#X obj -175 242 line~;
#X obj -154 192 / 44.1;
#X obj -175 170 f;
#X msg -153 21 0;
#X obj -188 -36 inlet;
#N canvas 0 50 450 250 (subpatch) 0;
#X array bridgeECS 100 float 3;
#A 0 0 0 0 0 0 0 0 0 0 0 0 0 0 0 0 0 0 0 0 0 0 0 0 0 0 0 0 0 0 0 0
0 0 0 0 0 0 0 0 0 0 0 0 0 0 0 0.171429 0 0 0 0 0 0 0 0 0 0 0 0 0 0
0 0 0 0 0 0 0 0 0 0 0 0 0 0 0 0 0 0 0 0 0 0 0 0 0 0 0 0 0 0 0 0 0 0
0 0 0 0 0;
#X coords 0 1 100 -1 200 140 1 0 0;
#X restore 149 63 graph;
#X msg -73 132 resize \$1;
#X obj -133 102 t f f f f;
#X obj -243 301 outlet;
#X obj -188 -5 t b b b;
#X obj -133 63 r sampleBridgeECS @hv_param 0 441000 0;
#X obj -73 153 s bridgeECS;
#X obj -175 275 tabread4~ bridgeECS;
#X obj -226 73 del;
#X obj -185 84 / 44.1;
#X obj -231 21 r stop;
#X msg -231 43 stop;
#X obj -185 351 throw~ left;
#X obj -101 348 throw~ right;
#X obj -43 319 *~;
#X obj -176 319 *~;
#X obj 11 288 r volBridgeECS @hv_param 0 2 1;
#X connect 0 0 1 0;
#X connect 1 0 13 0;
#X connect 2 0 0 1;
#X connect 3 0 0 0;
#X connect 4 0 1 0;
#X connect 5 0 10 0;
#X connect 7 0 12 0;
#X connect 8 0 15 0;
#X connect 8 1 2 0;
#X connect 8 2 3 1;
#X connect 8 3 7 0;
#X connect 10 0 14 0;
#X connect 10 1 3 0;
#X connect 10 2 4 0;
#X connect 11 0 8 0;
#X connect 13 0 21 0;
#X connect 13 0 20 0;
#X connect 14 0 9 0;
#X connect 15 0 14 1;
#X connect 16 0 17 0;
#X connect 17 0 14 0;
#X connect 20 0 19 0;
#X connect 21 0 18 0;
#X connect 22 0 20 1;
#X connect 22 0 21 1;
#X restore 438 1199 pd BridgeECS;
#X obj 923 866 route 0 1 2 3 4 5 6 7;
#X obj 924 842 random 9;
#N canvas 599 95 681 644 melodyE1 0;
#X obj -175 215 pack;
#X obj -175 242 line~;
#X obj -154 192 / 44.1;
#X obj -175 170 f;
#X msg -153 21 0;
#X obj -188 -5 t b b;
#X obj -188 -36 inlet;
#N canvas 0 50 450 250 (subpatch) 0;
#X array melodyE1 100 float 3;
#A 0 0 0 0 0 0 0 0 0 0 0 0 0 0 0 0 0 0 0 0 0 0 0 0 0 0 0 0 0 0 0 0
0 0 0 0 0 0 0 0 0 0 0 0 0 0 0 0 0 0 0 0 0 0 0 0 0 0 0 0 0 0 0 0 0 0
0 0 0 0 0 0 0 0 0 0 0 0 0 0 0 0 0 0 0 0 0 0 0 0 0 0 0 0 0 0 0 0 0 0
0;
#X coords 0 1 100 -1 200 140 1 0 0;
#X restore 50 55 graph;
#X obj -133 102 t f f f;
#X obj -175 275 tabread4~ melodyE1;
#X obj -247 202 s duration;
#X msg -94 132 resize \$1;
#X obj -94 153 s melodyE1;
#X obj -134 63 r sampleMelodyE1 @hv_param 0 441000 0;
#X obj -185 351 throw~ left;
#X obj -101 348 throw~ right;
#X obj -43 319 *~;
#X obj -176 319 *~;
#X obj 11 288 r volMelodyE1 @hv_param 0 2 1;
#X connect 0 0 1 0;
#X connect 1 0 9 0;
#X connect 2 0 0 1;
#X connect 3 0 0 0;
#X connect 3 0 10 0;
#X connect 4 0 1 0;
#X connect 5 0 3 0;
#X connect 5 1 4 0;
#X connect 6 0 5 0;
#X connect 8 0 2 0;
#X connect 8 1 3 1;
#X connect 8 2 11 0;
#X connect 9 0 17 0;
#X connect 9 0 16 0;
#X connect 11 0 12 0;
#X connect 13 0 8 0;
#X connect 16 0 15 0;
#X connect 17 0 14 0;
#X connect 18 0 16 1;
#X connect 18 0 17 1;
#X restore 889 923 pd melodyE1;
#N canvas 599 95 681 644 melodyE2 0;
#X obj -175 215 pack;
#X obj -175 242 line~;
#X obj -154 192 / 44.1;
#X obj -175 170 f;
#X msg -153 21 0;
#X obj -188 -5 t b b;
#X obj -188 -36 inlet;
#N canvas 0 50 450 250 (subpatch) 0;
#X array melodyE2 100 float 3;
#A 0 0 0 0 0 0 0 0 0 0 0 0 0 0 0 0 0 0 0 0 0 0 0 0 0 0 0 0 0 0 0 0
0 0 0 0 0 0 0 0 0 0 0 0 0 0 0 0 0 0 0 0 0 0 0 0 0 0 0 0 0 0 0 0 0 0
0 0 0 0 0 0 0 0 0 0 0 0 0 0 0 0 0 0 0 0 0 0 0 0 0 0 0 0 0 0 0 0 0 0
0;
#X coords 0 1 100 -1 200 140 1 0 0;
#X restore 50 55 graph;
#X obj -133 102 t f f f;
#X obj -175 275 tabread4~ melodyE2;
#X obj -247 202 s duration;
#X msg -94 132 resize \$1;
#X obj -94 153 s melodyE2;
#X obj -133 63 r sampleMelodyE2 @hv_param 0 44100 0;
#X obj -185 351 throw~ left;
#X obj -43 351 throw~ right;
#X obj -43 319 *~;
#X obj -176 319 *~;
#X obj 11 288 r volMelodyE2 @hv_param 0 2 1;
#X connect 0 0 1 0;
#X connect 1 0 9 0;
#X connect 2 0 0 1;
#X connect 3 0 0 0;
#X connect 3 0 10 0;
#X connect 4 0 1 0;
#X connect 5 0 3 0;
#X connect 5 1 4 0;
#X connect 6 0 5 0;
#X connect 8 0 2 0;
#X connect 8 1 3 1;
#X connect 8 2 11 0;
#X connect 9 0 17 0;
#X connect 9 0 16 0;
#X connect 11 0 12 0;
#X connect 13 0 8 0;
#X connect 16 0 15 0;
#X connect 17 0 14 0;
#X connect 18 0 16 1;
#X connect 18 0 17 1;
#X restore 966 923 pd melodyE2;
#N canvas 599 95 681 644 melodyE3 0;
#X obj -175 215 pack;
#X obj -175 242 line~;
#X obj -154 192 / 44.1;
#X obj -175 170 f;
#X msg -153 21 0;
#X obj -188 -5 t b b;
#X obj -188 -36 inlet;
#N canvas 0 50 450 250 (subpatch) 0;
#X array melodyE3 100 float 3;
#A 0 0 0 0 0 0 0 0 0 0 0 0 0 0 0 0 0 0 0 0 0 0 0 0 0 0 0 0 0 0 0 0
0 0 0 0 0 0 0 0 0 0 0 0 0 0 0 0 0 0 0 0 0 0 0 0 0 0 0 0 0 0 0 0 0 0
0 0 0 0 0 0 0 0 0 0 0 0 0 0 0 0 0 0 0 0 0 0 0 0 0 0 0 0 0 0 0 0 0 0
0;
#X coords 0 1 100 -1 200 140 1 0 0;
#X restore 50 55 graph;
#X obj -133 102 t f f f;
#X obj -175 275 tabread4~ melodyE3;
#X obj -247 202 s duration;
#X msg -94 132 resize \$1;
#X obj -94 153 s melodyE3;
#X obj -133 63 r sampleMelodyE3 @hv_param 0 441000 0;
#X obj -185 351 throw~ left;
#X obj -101 348 throw~ right;
#X obj -43 319 *~;
#X obj -176 319 *~;
#X obj 11 288 r volMelodyE3 @hv_param 0 2 1;
#X connect 0 0 1 0;
#X connect 1 0 9 0;
#X connect 2 0 0 1;
#X connect 3 0 0 0;
#X connect 3 0 10 0;
#X connect 4 0 1 0;
#X connect 5 0 3 0;
#X connect 5 1 4 0;
#X connect 6 0 5 0;
#X connect 8 0 2 0;
#X connect 8 1 3 1;
#X connect 8 2 11 0;
#X connect 9 0 17 0;
#X connect 9 0 16 0;
#X connect 11 0 12 0;
#X connect 13 0 8 0;
#X connect 16 0 15 0;
#X connect 17 0 14 0;
#X connect 18 0 16 1;
#X connect 18 0 17 1;
#X restore 890 963 pd melodyE3;
#N canvas 599 95 681 644 melodyE4 0;
#X obj -175 215 pack;
#X obj -175 242 line~;
#X obj -154 192 / 44.1;
#X obj -175 170 f;
#X msg -153 21 0;
#X obj -188 -5 t b b;
#X obj -188 -36 inlet;
#N canvas 0 50 450 250 (subpatch) 0;
#X array melodyE4 100 float 3;
#A 0 0 0 0 0 0 0 0 0 0 0 0 0 0 0 0 0 0 0 0 0 0 0 0 0 0 0 0 0 0 0 0
0 0 0 0 0 0 0 0 0 0 0 0 0 0 0 0 0 0 0 0 0 0 0 0 0 0 0 0 0 0 0 0 0 0
0 0 0 0 0 0 0 0 0 0 0 0 0 0 0 0 0 0 0 0 0 0 0 0 0 0 0 0 0 0 0 0 0 0
0;
#X coords 0 1 100 -1 200 140 1 0 0;
#X restore 50 55 graph;
#X obj -133 102 t f f f;
#X obj -175 275 tabread4~ melodyE4;
#X obj -247 202 s duration;
#X msg -94 132 resize \$1;
#X obj -94 153 s melodyE4;
#X obj -133 63 r sampleMelodyE4 @hv_param 0 441000 0;
#X obj -185 351 throw~ left;
#X obj -101 348 throw~ right;
#X obj -43 319 *~;
#X obj -176 319 *~;
#X obj 11 288 r volMelodyE4 @hv_param 0 2 1;
#X connect 0 0 1 0;
#X connect 1 0 9 0;
#X connect 2 0 0 1;
#X connect 3 0 0 0;
#X connect 3 0 10 0;
#X connect 4 0 1 0;
#X connect 5 0 3 0;
#X connect 5 1 4 0;
#X connect 6 0 5 0;
#X connect 8 0 2 0;
#X connect 8 1 3 1;
#X connect 8 2 11 0;
#X connect 9 0 17 0;
#X connect 9 0 16 0;
#X connect 11 0 12 0;
#X connect 13 0 8 0;
#X connect 16 0 15 0;
#X connect 17 0 14 0;
#X connect 18 0 16 1;
#X connect 18 0 17 1;
#X restore 968 964 pd melodyE4;
#N canvas 599 95 681 644 melodyE5 0;
#X obj -175 215 pack;
#X obj -175 242 line~;
#X obj -154 192 / 44.1;
#X obj -175 170 f;
#X msg -153 21 0;
#X obj -188 -5 t b b;
#X obj -188 -36 inlet;
#N canvas 0 50 450 250 (subpatch) 0;
#X array melodyE5 100 float 3;
#A 0 0 0 0 0 0 0 0 0 0 0 0 0 0 0 0 0 0 0 0 0 0 0 0 0 0 0 0 0 0 0 0
0 0 0 0 0 0 0 0 0 0 0 0 0 0 0 0 0 0 0 0 0 0 0 0 0 0 0 0 0 0 0 0 0 0
0 0 0 0 0 0 0 0 0 0 0 0 0 0 0 0 0 0 0 0 0 0 0 0 0 0 0 0 0 0 0 0 0 0
0;
#X coords 0 1 100 -1 200 140 1 0 0;
#X restore 50 55 graph;
#X obj -133 102 t f f f;
#X obj -175 275 tabread4~ melodyE5;
#X obj -247 202 s duration;
#X msg -94 132 resize \$1;
#X obj -94 153 s melodyE5;
#X obj -133 63 r sampleMelodyE5 @hv_param 0 441000 0;
#X obj -185 351 throw~ left;
#X obj -101 348 throw~ right;
#X obj -43 319 *~;
#X obj -176 319 *~;
#X obj 11 288 r volMelodyE5 @hv_param 0 2 1;
#X connect 0 0 1 0;
#X connect 1 0 9 0;
#X connect 2 0 0 1;
#X connect 3 0 0 0;
#X connect 3 0 10 0;
#X connect 4 0 1 0;
#X connect 5 0 3 0;
#X connect 5 1 4 0;
#X connect 6 0 5 0;
#X connect 8 0 2 0;
#X connect 8 1 3 1;
#X connect 8 2 11 0;
#X connect 9 0 17 0;
#X connect 9 0 16 0;
#X connect 11 0 12 0;
#X connect 13 0 8 0;
#X connect 16 0 15 0;
#X connect 17 0 14 0;
#X connect 18 0 16 1;
#X connect 18 0 17 1;
#X restore 888 994 pd melodyE5;
#N canvas 599 95 681 644 melodyE6 0;
#X obj -175 215 pack;
#X obj -175 242 line~;
#X obj -154 192 / 44.1;
#X obj -175 170 f;
#X msg -153 21 0;
#X obj -188 -5 t b b;
#X obj -188 -36 inlet;
#N canvas 0 50 450 250 (subpatch) 0;
#X array melodyE6 100 float 3;
#A 0 0 0 0 0 0 0 0 0 0 0 0 0 0 0 0 0 0 0 0 0 0 0 0 0 0 0 0 0 0 0 0
0 0 0 0 0 0 0 0 0 0 0 0 0 0 0 0 0 0 0 0 0 0 0 0 0 0 0 0 0 0 0 0 0 0
0 0 0 0 0 0 0 0 0 0 0 0 0 0 0 0 0 0 0 0 0 0 0 0 0 0 0 0 0 0 0 0 0 0
0;
#X coords 0 1 100 -1 200 140 1 0 0;
#X restore 50 55 graph;
#X obj -133 102 t f f f;
#X obj -175 275 tabread4~ melodyE6;
#X obj -247 202 s duration;
#X msg -94 132 resize \$1;
#X obj -94 153 s melodyE6;
#X obj -133 63 r sampleMelodyE6 @hv_param 0 441000 0;
#X obj -185 351 throw~ left;
#X obj -101 348 throw~ right;
#X obj -43 319 *~;
#X obj -176 319 *~;
#X obj 11 288 r volMelodyE6 @hv_param 0 2 1;
#X connect 0 0 1 0;
#X connect 1 0 9 0;
#X connect 2 0 0 1;
#X connect 3 0 0 0;
#X connect 3 0 10 0;
#X connect 4 0 1 0;
#X connect 5 0 3 0;
#X connect 5 1 4 0;
#X connect 6 0 5 0;
#X connect 8 0 2 0;
#X connect 8 1 3 1;
#X connect 8 2 11 0;
#X connect 9 0 17 0;
#X connect 9 0 16 0;
#X connect 11 0 12 0;
#X connect 13 0 8 0;
#X connect 16 0 15 0;
#X connect 17 0 14 0;
#X connect 18 0 16 1;
#X connect 18 0 17 1;
#X restore 968 994 pd melodyE6;
#N canvas 599 95 681 644 melodyE7 0;
#X obj -175 215 pack;
#X obj -175 242 line~;
#X obj -154 192 / 44.1;
#X obj -175 170 f;
#X msg -153 21 0;
#X obj -188 -5 t b b;
#X obj -188 -36 inlet;
#N canvas 0 50 450 250 (subpatch) 0;
#X array melodyE7 100 float 3;
#A 0 0 0 0 0 0 0 0 0 0 0 0 0 0 0 0 0 0 0 0 0 0 0 0 0 0 0 0 0 0 0 0
0 0 0 0 0 0 0 0 0 0 0 0 0 0 0 0 0 0 0 0 0 0 0 0 0 0 0 0 0 0 0 0 0 0
0 0 0 0 0 0 0 0 0 0 0 0 0 0 0 0 0 0 0 0 0 0 0 0 0 0 0 0 0 0 0 0 0 0
0;
#X coords 0 1 100 -1 200 140 1 0 0;
#X restore 50 55 graph;
#X obj -133 102 t f f f;
#X obj -175 275 tabread4~ melodyE7;
#X obj -247 202 s duration;
#X msg -94 132 resize \$1;
#X obj -94 153 s melodyE7;
#X obj -133 63 r sampleMelodyE7 @hv_param 0 441000 0;
#X obj -185 351 throw~ left;
#X obj -101 348 throw~ right;
#X obj -43 319 *~;
#X obj -176 319 *~;
#X obj 11 288 r volMelodyE7 @hv_param 0 2 1;
#X connect 0 0 1 0;
#X connect 1 0 9 0;
#X connect 2 0 0 1;
#X connect 3 0 0 0;
#X connect 3 0 10 0;
#X connect 4 0 1 0;
#X connect 5 0 3 0;
#X connect 5 1 4 0;
#X connect 6 0 5 0;
#X connect 8 0 2 0;
#X connect 8 1 3 1;
#X connect 8 2 11 0;
#X connect 9 0 17 0;
#X connect 9 0 16 0;
#X connect 11 0 12 0;
#X connect 13 0 8 0;
#X connect 16 0 15 0;
#X connect 17 0 14 0;
#X connect 18 0 16 1;
#X connect 18 0 17 1;
#X restore 888 1034 pd melodyE7;
#N canvas 599 95 681 644 melodyE8 0;
#X obj -175 215 pack;
#X obj -175 242 line~;
#X obj -154 192 / 44.1;
#X obj -175 170 f;
#X msg -153 21 0;
#X obj -188 -5 t b b;
#X obj -188 -36 inlet;
#N canvas 0 50 450 250 (subpatch) 0;
#X array melodyE8 100 float 3;
#A 0 0 0 0 0 0 0 0 0 0 0 0 0 0 0 0 0 0 0 0 0 0 0 0 0 0 0 0 0 0 0 0
0 0 0 0 0 0 0 0 0 0 0 0 0 0 0 0 0 0 0 0 0 0 0 0 0 0 0 0 0 0 0 0 0 0
0 0 0 0 0 0 0 0 0 0 0 0 0 0 0 0 0 0 0 0 0 0 0 0 0 0 0 0 0 0 0 0 0 0
0;
#X coords 0 1 100 -1 200 140 1 0 0;
#X restore 50 55 graph;
#X obj -133 102 t f f f;
#X obj -175 275 tabread4~ melodyE8;
#X obj -247 202 s duration;
#X msg -94 132 resize \$1;
#X obj -94 153 s melodyE8;
#X obj -135 63 r sampleMelodyE8 @hv_param 0 441000 0;
#X obj -185 351 throw~ left;
#X obj -101 348 throw~ right;
#X obj -43 319 *~;
#X obj -176 319 *~;
#X obj 11 288 r volMelodyE8 @hv_param 0 2 1;
#X connect 0 0 1 0;
#X connect 1 0 9 0;
#X connect 2 0 0 1;
#X connect 3 0 0 0;
#X connect 3 0 10 0;
#X connect 4 0 1 0;
#X connect 5 0 3 0;
#X connect 5 1 4 0;
#X connect 6 0 5 0;
#X connect 8 0 2 0;
#X connect 8 1 3 1;
#X connect 8 2 11 0;
#X connect 9 0 17 0;
#X connect 9 0 16 0;
#X connect 11 0 12 0;
#X connect 13 0 8 0;
#X connect 16 0 15 0;
#X connect 17 0 14 0;
#X connect 18 0 16 1;
#X connect 18 0 17 1;
#X restore 968 1034 pd melodyE8;
#X obj 541 286 route 0 1 2 3 4 5 6 7;
#X obj 541 260 random 9;
#N canvas 599 95 681 644 melodyC1 0;
#X obj -175 215 pack;
#X obj -175 242 line~;
#X obj -154 192 / 44.1;
#X obj -175 170 f;
#X msg -153 21 0;
#X obj -188 -5 t b b;
#X obj -188 -36 inlet;
#N canvas 0 50 450 250 (subpatch) 0;
#X array melodyC1 100 float 3;
#A 0 0 0 0 0 0 0 0 0 0 0 0 0 0 0 0 0 0 0 0 0 0 0 0 0 0 0 0 0 0 0 0
0 0 0 0 0 0 0 0 0 0 0 0 0 0 0 0 0 0 0 0 0 0 0 0 0 0 0 0 0 0 0 0 0 0
0 0 0 0 0 0 0 0 0 0 0 0 0 0 0 0 0 0 0 0 0 0 0 0 0 0 0 0 0 0 0 0 0 0
0;
#X coords 0 1 100 -1 200 140 1 0 0;
#X restore 275 56 graph;
#X obj -133 102 t f f f;
#X obj -175 275 tabread4~ melodyC1;
#X obj -247 202 s duration;
#X msg -94 132 resize \$1;
#X obj -94 153 s melodyC1;
#X obj -133 63 r sampleMelodyC1 @hv_param 0 441000 0;
#X obj -185 351 throw~ left;
#X obj -101 348 throw~ right;
#X obj -43 319 *~;
#X obj -176 319 *~;
#X obj 11 288 r volMelodyC1 @hv_param 0 2 1;
#X connect 0 0 1 0;
#X connect 1 0 9 0;
#X connect 2 0 0 1;
#X connect 3 0 0 0;
#X connect 3 0 10 0;
#X connect 4 0 1 0;
#X connect 5 0 3 0;
#X connect 5 1 4 0;
#X connect 6 0 5 0;
#X connect 8 0 2 0;
#X connect 8 1 3 1;
#X connect 8 2 11 0;
#X connect 9 0 17 0;
#X connect 9 0 16 0;
#X connect 11 0 12 0;
#X connect 13 0 8 0;
#X connect 16 0 15 0;
#X connect 17 0 14 0;
#X connect 18 0 16 1;
#X connect 18 0 17 1;
#X restore 536 332 pd melodyC1;
#N canvas 599 95 681 644 melodyC3 0;
#X obj -175 215 pack;
#X obj -175 242 line~;
#X obj -154 192 / 44.1;
#X obj -175 170 f;
#X msg -153 21 0;
#X obj -188 -5 t b b;
#X obj -188 -36 inlet;
#N canvas 0 50 450 250 (subpatch) 0;
#X array melodyC3 642 float 3;
#A 0 0 0 0 0 0 0 0 0 0 0 0 0 0 0 0 0 0 0 0 0 0 0 0 0 0 0 0 0 0 0 0
0 0 0 0 0 0 0 0 0 0 0 0 0 0 0 0 0 0 0 0 0 0 0 0 0 0 0 0 0 0 0 0 0 0
0 0 0 0 0 0 0 0 0 0 0 0 0 0 0 0 0 0 0 0 0 0 0 0 0 0 0 0 0 0 0 0 0 0
0 0 0 0 0 0 0 0 0 0 0 0 0 0 0 0 0 0 0 0 0 0 0 0 0 0 0 0 0 0 0 0 0 0
0 0 0 0 0 0 0 0 0 0 0 0 0 0 0 0 0 0 0 0 0 0 0 0 0 0 0 0 0 0 0 0 0 0
0 0 0 0 0 0 0 0 0 0 0 0 0 0 0 0 0 0 0 0 0 0 0 0 0 0 0 0 0 0 0 0 0 0
0 0 0 0 0 0 0 0 0 0 0 0 0 0 0 0 0 0 0 0 0 0 0 0 0 0 0 0 0 0 0 0 0 0
0 0 0 0 0 0 0 0 0 0 0 0 0 0 0 0 0 0 0 0 0 0 0 0 0 0 0 0 0 0 0 0 0 0
0 0 0 0 0 0 0 0 0 0 0 0 0 0 0 0 0 0 0 0 0 0 0 0 0 0 0 0 0 0 0 0 0 0
0 0 0 0 0 0 0 0 0 0 0 0 0 0 0 0 0 0 0 0 0 0 0 0 0 0 0 0 0 0 0 0 0 0
0 0 0 0 0 0 0 0 0 0 0 0 0 0 0 0 0 0 0 0 0 0 0 0 0 0 0 0 0 0 0 0 0 0
0 0 0 0 0 0 0 0 0 0 0 0 0 0 0 0 0 0 0 0 0 0 0 0 0 0 0 0 0 0 0 0 0 0
0 0 0 0 0 0 0 0 0 0 0 0 0 0 0 0 0 0 0 0 0 0 0 0 0 0 0 0 0 0 0 0 0 0
0 0 0 0 0 0 0 0 0 0 0 0 0 0 0 0 0 0 0 0 0 0 0 0 0 0 0 0 0 0 0 0 0 0
0 0 0 0 0 0 0 0 0 0 0 0 0 0 0 0 0 0 0 0 0 0 0 0 0 0 0 0 0 0 0 0 0 0
0 0 0 0 0 0 0 0 0 0 0 0 0 0 0 0 0 0 0 0 0 0 0 0 0 0 0 0 0 0 0 0 0 0
0 0 0 0 0 0 0 0 0 0 0 0 0 0 0 0 0 0 0 0 0 0 0 0 0 0 0 0 0 0 0 0 0 0
0 0 0 0 0 0 0 0 0 0 0 0 0 0 0 0 0 0 0 0 0 0 0 0 0 0 0 0 0 0 0 0 0 0
0 0 0 0 0 0 0 0 0 0 0 0 0 0 0 0 0 0 0 0 0 0 0 0 0 0 0 0 0 0 0 0 0;
#X coords 0 1 642 -1 200 140 1 0 0;
#X restore 50 55 graph;
#X obj -133 102 t f f f;
#X obj -175 275 tabread4~ melodyC3;
#X obj -247 202 s duration;
#X msg -94 132 resize \$1;
#X obj -94 153 s melodyC3;
#X obj -133 63 r sampleMelodyC3 @hv_param 0 441000 0;
#X obj -185 351 throw~ left;
#X obj -101 348 throw~ right;
#X obj -43 319 *~;
#X obj -176 319 *~;
#X obj 11 288 r volMelodyC3 @hv_param 0 2 1;
#X connect 0 0 1 0;
#X connect 1 0 9 0;
#X connect 2 0 0 1;
#X connect 3 0 0 0;
#X connect 3 0 10 0;
#X connect 4 0 1 0;
#X connect 5 0 3 0;
#X connect 5 1 4 0;
#X connect 6 0 5 0;
#X connect 8 0 2 0;
#X connect 8 1 3 1;
#X connect 8 2 11 0;
#X connect 9 0 17 0;
#X connect 9 0 16 0;
#X connect 11 0 12 0;
#X connect 13 0 8 0;
#X connect 16 0 15 0;
#X connect 17 0 14 0;
#X connect 18 0 16 1;
#X connect 18 0 17 1;
#X restore 537 372 pd melodyC3;
#N canvas 599 95 681 644 melodyC2 0;
#X obj -175 215 pack;
#X obj -175 242 line~;
#X obj -154 192 / 44.1;
#X obj -175 170 f;
#X msg -153 21 0;
#X obj -188 -5 t b b;
#X obj -188 -36 inlet;
#X obj -185 351 throw~ left;
#X obj -101 348 throw~ right;
#N canvas 0 50 450 250 (subpatch) 0;
#X array melodyC2 100 float 3;
#A 0 0 0 0 0 0 0 0 0 0 0 0 0 0 0 0 0 0 0 0 0 0 0 0 0 0 0 0 0 0 0 0
0 0 0 0 0 0 0 0 0 0 0 0 0 0 0 0 0 0 0 0 0 0 0 0 0 0 0 0 0 0 0 0 0 0
0 0 0 0 0 0 0 0 0 0 0 0 0 0 0 0 0 0 0 0 0 0 0 0 0 0 0 0 0 0 0 0 0 0
0;
#X coords 0 1 100 -1 200 140 1 0 0;
#X restore 98 59 graph;
#X obj -133 102 t f f f;
#X obj -175 275 tabread4~ melodyC2;
#X obj -247 202 s duration;
#X msg -94 132 resize \$1;
#X obj -94 153 s melodyC2;
#X obj -133 63 r sampleMelodyC2 @hv_param 0 441000 0;
#X obj 11 288 r volMelodyC2 @hv_param 0 2 1;
#X obj -43 319 *~;
#X obj -176 319 *~;
#X connect 0 0 1 0;
#X connect 1 0 11 0;
#X connect 2 0 0 1;
#X connect 3 0 0 0;
#X connect 3 0 12 0;
#X connect 4 0 1 0;
#X connect 5 0 3 0;
#X connect 5 1 4 0;
#X connect 6 0 5 0;
#X connect 10 0 2 0;
#X connect 10 1 3 1;
#X connect 10 2 13 0;
#X connect 11 0 17 0;
#X connect 11 0 18 0;
#X connect 13 0 14 0;
#X connect 15 0 10 0;
#X connect 16 0 17 1;
#X connect 16 0 18 1;
#X connect 17 0 8 0;
#X connect 18 0 7 0;
#X restore 613 332 pd melodyC2;
#N canvas 599 95 681 644 melodyC4 0;
#X obj -175 215 pack;
#X obj -175 242 line~;
#X obj -154 192 / 44.1;
#X obj -175 170 f;
#X msg -153 21 0;
#X obj -188 -5 t b b;
#X obj -188 -36 inlet;
#N canvas 0 50 450 250 (subpatch) 0;
#X array melodyC4 100 float 3;
#A 0 0 0 0 0 0 0 0 0 0 0 0 0 0 0 0 0 0 0 0 0 0 0 0 0 0 0 0 0 0 0 0
0 0 0 0 0 0 0 0 0 0 0 0 0 0 0 0 0 0 0 0 0 0 0 0 0 0 0 0 0 0 0 0 0 0
0 0 0 0 0 0 0 0 0 0 0 0 0 0 0 0 0 0 0 0 0 0 0 0 0 0 0 0 0 0 0 0 0 0
0;
#X coords 0 1 100 -1 200 140 1 0 0;
#X restore 50 55 graph;
#X obj -133 102 t f f f;
#X obj -176 265 tabread4~ melodyC4;
#X obj -247 202 s duration;
#X msg -94 132 resize \$1;
#X obj -94 153 s melodyC4;
#X obj -133 63 r sampleMelodyC4 @hv_param 0 441000 0;
#X obj -185 351 throw~ left;
#X obj -101 348 throw~ right;
#X obj -43 319 *~;
#X obj -176 319 *~;
#X obj 11 288 r volMelodyC4 @hv_param 0 2 1;
#X connect 0 0 1 0;
#X connect 1 0 9 0;
#X connect 2 0 0 1;
#X connect 3 0 0 0;
#X connect 3 0 10 0;
#X connect 4 0 1 0;
#X connect 5 0 3 0;
#X connect 5 1 4 0;
#X connect 6 0 5 0;
#X connect 8 0 2 0;
#X connect 8 1 3 1;
#X connect 8 2 11 0;
#X connect 9 0 17 0;
#X connect 9 0 16 0;
#X connect 11 0 12 0;
#X connect 13 0 8 0;
#X connect 16 0 15 0;
#X connect 17 0 14 0;
#X connect 18 0 16 1;
#X connect 18 0 17 1;
#X restore 615 373 pd melodyC4;
#N canvas 599 95 681 644 melodyC5 0;
#X obj -175 215 pack;
#X obj -175 242 line~;
#X obj -154 192 / 44.1;
#X obj -178 164 f;
#X msg -153 21 0;
#X obj -188 -5 t b b;
#X obj -188 -36 inlet;
#N canvas 0 50 450 250 (subpatch) 0;
#X array melodyC5 100 float 3;
#A 0 0 0 0 0 0 0 0 0 0 0 0 0 0 0 0 0 0 0 0 0 0 0 0 0 0 0 0 0 0 0 0
0 0 0 0 0 0 0 0 0 0 0 0 0 0 0 0 0 0 0 0 0 0 0 0 0 0 0 0 0 0 0 0 0 0
0 0 0 0 0 0 0 0 0 0 0 0 0 0 0 0 0 0 0 0 0 0 0 0 0 0 0 0 0 0 0 0 0 0
0;
#X coords 0 1 100 -1 200 140 1 0 0;
#X restore 50 55 graph;
#X obj -133 102 t f f f;
#X obj -175 275 tabread4~ melodyC5;
#X obj -247 202 s duration;
#X msg -94 132 resize \$1;
#X obj -94 153 s melodyC5;
#X obj -133 63 r sampleMelodyC5 @hv_param 0 441000 0;
#X obj -185 351 throw~ left;
#X obj -101 348 throw~ right;
#X obj -43 319 *~;
#X obj -176 319 *~;
#X obj 11 288 r volMelodyC5 @hv_param 0 2 1;
#X connect 0 0 1 0;
#X connect 1 0 9 0;
#X connect 2 0 0 1;
#X connect 3 0 0 0;
#X connect 3 0 10 0;
#X connect 4 0 1 0;
#X connect 5 0 3 0;
#X connect 5 1 4 0;
#X connect 6 0 5 0;
#X connect 8 0 2 0;
#X connect 8 1 3 1;
#X connect 8 2 11 0;
#X connect 9 0 17 0;
#X connect 9 0 16 0;
#X connect 11 0 12 0;
#X connect 13 0 8 0;
#X connect 16 0 15 0;
#X connect 17 0 14 0;
#X connect 18 0 16 1;
#X connect 18 0 17 1;
#X restore 535 403 pd melodyC5;
#N canvas 599 95 681 644 melodyC6 0;
#X obj -175 215 pack;
#X obj -175 242 line~;
#X obj -154 192 / 44.1;
#X obj -175 170 f;
#X msg -153 21 0;
#X obj -188 -5 t b b;
#X obj -188 -36 inlet;
#N canvas 0 50 450 250 (subpatch) 0;
#X array melodyC6 100 float 3;
#A 0 0 0 0 0 0 0 0 0 0 0 0 0 0 0 0 0 0 0 0 0 0 0 0 0 0 0 0 0 0 0 0
0 0 0 0 0 0 0 0 0 0 0 0 0 0 0 0 0 0 0 0 0 0 0 0 0 0 0 0 0 0 0 0 0 0
0 0 0 0 0 0 0 0 0 0 0 0 0 0 0 0 0 0 0 0 0 0 0 0 0 0 0 0 0 0 0 0 0 0
0;
#X coords 0 1 100 -1 200 140 1 0 0;
#X restore 50 55 graph;
#X obj -133 102 t f f f;
#X obj -175 275 tabread4~ melodyC6;
#X obj -247 202 s duration;
#X msg -94 132 resize \$1;
#X obj -94 153 s melodyC6;
#X obj -133 63 r sampleMelodyC6 @hv_param 0 441000 0;
#X obj -185 351 throw~ left;
#X obj -101 348 throw~ right;
#X obj -43 319 *~;
#X obj -176 319 *~;
#X obj 11 288 r volMelodyC6 @hv_param 0 2 1;
#X connect 0 0 1 0;
#X connect 1 0 9 0;
#X connect 2 0 0 1;
#X connect 3 0 0 0;
#X connect 3 0 10 0;
#X connect 4 0 1 0;
#X connect 5 0 3 0;
#X connect 5 1 4 0;
#X connect 6 0 5 0;
#X connect 8 0 2 0;
#X connect 8 1 3 1;
#X connect 8 2 11 0;
#X connect 9 0 17 0;
#X connect 9 0 16 0;
#X connect 11 0 12 0;
#X connect 13 0 8 0;
#X connect 16 0 15 0;
#X connect 17 0 14 0;
#X connect 18 0 16 1;
#X connect 18 0 17 1;
#X restore 615 403 pd melodyC6;
#N canvas 599 95 681 644 melodyC7 0;
#X obj -175 215 pack;
#X obj -175 242 line~;
#X obj -154 192 / 44.1;
#X obj -180 159 f;
#X msg -153 21 0;
#X obj -188 -5 t b b;
#X obj -188 -36 inlet;
#N canvas 0 50 450 250 (subpatch) 0;
#X array melodyC7 100 float 3;
#A 0 0 0 0 0 0 0 0 0 0 0 0 0 0 0 0 0 0 0 0 0 0 0 0 0 0 0 0 0 0 0 0
0 0 0 0 0 0 0 0 0 0 0 0 0 0 0 0 0 0 0 0 0 0 0 0 0 0 0 0 0 0 0 0 0 0
0 0 0 0 0 0 0 0 0 0 0 0 0 0 0 0 0 0 0 0 0 0 0 0 0 0 0 0 0 0 0 0 0 0
0;
#X coords 0 1 100 -1 200 140 1 0 0;
#X restore 50 55 graph;
#X obj -133 102 t f f f;
#X obj -175 275 tabread4~ melodyC7;
#X obj -247 202 s duration;
#X msg -94 132 resize \$1;
#X obj -94 153 s melodyC7;
#X obj -133 63 r sampleMelodyC7 @hv_param 0 441000 0;
#X obj -185 351 throw~ left;
#X obj -101 348 throw~ right;
#X obj -43 319 *~;
#X obj -176 319 *~;
#X obj 11 288 r volMelodyC7 @hv_param 0 2 1;
#X connect 0 0 1 0;
#X connect 1 0 9 0;
#X connect 2 0 0 1;
#X connect 3 0 0 0;
#X connect 3 0 10 0;
#X connect 4 0 1 0;
#X connect 5 0 3 0;
#X connect 5 1 4 0;
#X connect 6 0 5 0;
#X connect 8 0 2 0;
#X connect 8 1 3 1;
#X connect 9 0 17 0;
#X connect 9 0 16 0;
#X connect 11 0 12 0;
#X connect 13 0 8 0;
#X connect 16 0 15 0;
#X connect 17 0 14 0;
#X connect 18 0 16 1;
#X connect 18 0 17 1;
#X restore 535 443 pd melodyC7;
#N canvas 599 95 681 644 melodyC8 0;
#X obj -175 215 pack;
#X obj -175 242 line~;
#X obj -154 192 / 44.1;
#X obj -175 170 f;
#X msg -153 21 0;
#X obj -188 -5 t b b;
#X obj -188 -36 inlet;
#N canvas 0 50 450 250 (subpatch) 0;
#X array melodyC8 100 float 3;
#A 0 0 0 0 0 0 0 0 0 0 0 0 0 0 0 0 0 0 0 0 0 0 0 0 0 0 0 0 0 0 0 0
0 0 0 0 0 0 0 0 0 0 0 0 0 0 0 0 0 0 0 0 0 0 0 0 0 0 0 0 0 0 0 0 0 0
0 0 0 0 0 0 0 0 0 0 0 0 0 0 0 0 0 0 0 0 0 0 0 0 0 0 0 0 0 0 0 0 0 0
0;
#X coords 0 1 100 -1 200 140 1 0 0;
#X restore 50 55 graph;
#X obj -135 102 t f f f;
#X obj -175 275 tabread4~ melodyC8;
#X obj -247 202 s duration;
#X msg -96 132 resize \$1;
#X obj -96 153 s melodyC8;
#X obj -135 63 r sampleMelodyC8 @hv_param 0 441000 0;
#X obj -185 351 throw~ left;
#X obj -101 348 throw~ right;
#X obj -43 319 *~;
#X obj -176 319 *~;
#X obj 11 288 r volMelodyC8 @hv_param 0 2 1;
#X connect 0 0 1 0;
#X connect 1 0 9 0;
#X connect 2 0 0 1;
#X connect 3 0 0 0;
#X connect 3 0 10 0;
#X connect 4 0 1 0;
#X connect 5 0 3 0;
#X connect 5 1 4 0;
#X connect 6 0 5 0;
#X connect 8 0 2 0;
#X connect 8 1 3 1;
#X connect 8 2 11 0;
#X connect 9 0 17 0;
#X connect 9 0 16 0;
#X connect 11 0 12 0;
#X connect 13 0 8 0;
#X connect 16 0 15 0;
#X connect 17 0 14 0;
#X connect 18 0 16 1;
#X connect 18 0 17 1;
#X restore 615 443 pd melodyC8;
#X obj 66 17 r Play @hv_event;
#X msg 66 39 bang;
#X obj 53 74 r Stop @hv_event;
#X obj 34 237 r C @hv_event;
#X obj 84 180 r E @hv_event;
#X msg 85 206 1;
#X msg 35 266 0;
#X obj 19 138 loadbang;
#X obj 52 103 s stop;
#X obj 563 705 t f b;
#X obj 203 295 t f b;
#X connect 0 0 17 0;
#X connect 0 1 19 0;
#X connect 0 2 18 0;
#X connect 1 0 60 0;
#X connect 2 0 4 1;
#X connect 2 0 7 1;
#X connect 2 0 9 1;
#X connect 3 0 1 0;
#X connect 3 1 13 0;
#X connect 4 0 3 0;
#X connect 5 0 25 0;
#X connect 5 1 24 0;
#X connect 5 2 23 0;
#X connect 6 0 59 0;
#X connect 7 0 8 0;
#X connect 8 0 6 0;
#X connect 8 1 15 0;
#X connect 9 0 10 0;
#X connect 10 0 1 0;
#X connect 10 1 6 0;
#X connect 13 0 14 0;
#X connect 14 0 26 0;
#X connect 14 1 27 0;
#X connect 15 0 16 0;
#X connect 16 0 28 0;
#X connect 16 1 29 0;
#X connect 17 0 4 0;
#X connect 18 0 4 0;
#X connect 19 0 4 0;
#X connect 20 0 22 0;
#X connect 21 0 22 1;
#X connect 23 0 7 0;
#X connect 24 0 7 0;
#X connect 25 0 7 0;
#X connect 26 0 6 0;
#X connect 27 0 6 0;
#X connect 28 0 1 0;
#X connect 29 0 1 0;
#X connect 30 0 32 0;
#X connect 30 1 33 0;
#X connect 30 2 34 0;
#X connect 30 3 35 0;
#X connect 30 4 36 0;
#X connect 30 5 37 0;
#X connect 30 6 38 0;
#X connect 30 7 39 0;
#X connect 31 0 30 0;
#X connect 40 0 42 0;
#X connect 40 1 44 0;
#X connect 40 2 43 0;
#X connect 40 3 45 0;
#X connect 40 4 46 0;
#X connect 40 5 47 0;
#X connect 40 6 48 0;
#X connect 40 7 49 0;
#X connect 41 0 40 0;
#X connect 50 0 51 0;
#X connect 51 0 9 0;
#X connect 52 0 58 0;
#X connect 53 0 56 0;
#X connect 54 0 55 0;
#X connect 55 0 2 0;
#X connect 56 0 2 0;
#X connect 57 0 56 0;
#X connect 59 0 5 0;
#X connect 59 1 31 0;
#X connect 60 0 0 0;
#X connect 60 1 41 0;
